<svg xmlns="http://www.w3.org/2000/svg" width="995" height="378" xmlns:v="https://vecta.io/nano"><path fill="#fff" d="M38.987 233.92V0H0v233.92h38.987zm68.01 0V110.138c13.429-8.229 25.45-12.346 36.063-12.346 15.595 0 23.392 8.122 23.392 24.366V233.92h37.038V115.011c0-15.161-4.278-26.749-12.833-34.763s-19.656-12.021-33.301-12.021c-11.263 0-22.526 3.032-33.789 9.097l-15.92 15.921h-.649l-1.625-21.769H70.284V233.92h36.713zM517.982 71.476v160.171c0 17.327-3.305 31.839-9.909 43.534-6.515 11.532-18.975 21.484-37.382 29.856l-.793.357-14.945-22.092c11.047-6.932 18.194-13.7 21.442-20.306 3.19-6.488 4.814-16.686 4.871-30.591l.002-.762V71.476h36.714zm-132.338-3.249c24.476 0 43.048 7.364 55.719 22.093s19.006 35.521 19.006 62.38-6.335 47.649-19.006 62.379-31.243 22.092-55.719 22.092c-24.258 0-42.723-7.418-55.394-22.255s-19.006-35.575-19.006-62.217 6.335-47.38 19.006-62.217 31.136-22.255 55.394-22.255zM316.983 0v29.89l-1.949 1.3c-5.848-1.731-12.346-2.6-19.493-2.6-14.367 0-21.622 8.811-21.765 26.43l-.002.536v15.92h35.738v25.991h-35.738V233.92h-37.037V97.467h-18.194V81.872l18.194-10.396V61.404c0-12.995 1.787-23.717 5.36-32.164s9.206-14.729 16.895-18.844 15.919-6.877 24.691-8.285S303.555 0 316.983 0zm68.661 93.243c-13.212 0-22.634 5.035-28.265 15.106s-8.447 24.854-8.447 44.348 2.762 34.275 8.284 44.348 14.999 15.106 28.428 15.106 22.905-5.034 28.428-15.106 8.285-24.854 8.285-44.348c0-19.71-2.815-34.547-8.447-44.51s-15.054-14.944-28.266-14.944zM499.139 8.447c6.281 0 11.426 1.896 15.433 5.687s6.011 8.501 6.011 14.133-2.003 10.342-6.011 14.133-9.15 5.687-15.433 5.687c-6.498 0-11.695-1.896-15.595-5.687s-5.848-8.502-5.848-14.133 1.948-10.343 5.848-14.133 9.097-5.687 15.595-5.687zm113.494 59.78c24.477 0 43.049 7.364 55.719 22.093s19.007 35.521 19.007 62.38-6.336 47.649-19.007 62.379-31.242 22.092-55.719 22.092c-24.258 0-42.723-7.418-55.394-22.255s-19.006-35.575-19.006-62.217 6.336-47.38 19.006-62.217 31.136-22.255 55.394-22.255zm0 25.016c-13.212 0-22.634 5.035-28.265 15.106s-8.447 24.854-8.447 44.348 2.762 34.275 8.284 44.348 14.999 15.106 28.428 15.106 22.905-5.034 28.429-15.106 8.284-24.854 8.284-44.348c0-19.71-2.814-34.547-8.446-44.51s-15.054-14.944-28.267-14.944zM744.646 0v73.444h0v49.508h0v82.702c9.747 5.632 19.928 8.447 30.54 8.447 13.861 0 23.718-5.253 29.564-15.758s8.772-25.72 8.772-45.646c0-20.359-3.088-35.088-9.261-44.186s-15.323-13.646-27.453-13.646c-6.813 0-14.232 2.157-22.263 6.475l-.001-18.002 9.918-7.642c8.664-4.98 18.194-7.473 28.591-7.473 18.41 0 32.76 7.526 43.048 22.58s15.433 35.684 15.433 61.892c0 26.642-6.335 47.381-19.006 62.217s-30.27 22.255-52.795 22.255c-18.122 0-33.938-4.617-47.441-13.853l-.642-.442-10.396 12.671h-13.32V0h36.712zm177.5 237.169c17.761 0 32.325-4.494 43.696-13.482s17.058-21.172 17.058-36.55c0-10.181-2.762-18.844-8.284-25.991s-12.292-12.509-20.306-16.082a333.24 333.24 0 0 0-23.88-9.585c-7.905-2.814-14.62-6.118-20.144-9.909s-8.284-8.393-8.284-13.808c0-4.981 1.949-9.043 5.849-12.184s9.745-4.711 17.544-4.711c13.212 0 26.749 2.925 40.61 8.771l2.274-1.3 7.797-24.691c-16.678-6.28-34.222-9.422-52.632-9.422-16.678 0-30.54 3.898-41.586 11.696s-16.569 19.061-16.569 33.788c0 10.181 2.707 18.844 8.122 25.991s12.075 12.563 19.979 16.244 15.759 7.039 23.556 10.071 14.402 6.498 19.817 10.396 8.122 8.556 8.122 13.97c0 5.632-2.166 10.396-6.498 14.296s-10.828 5.848-19.492 5.848c-18.41 0-36.713-4.549-54.906-13.646l3.574 28.915c17.111 7.585 35.305 11.375 54.583 11.375z"/><path fill="#ff6f00" d="M746.287 337.074c-72.192 13.764-146.747 21.203-220.198 15.701-9.967-.748-32.409-7.384-37.301 6.139-.373 1.035-.488 2.12-.488 3.214.021 11.647 12.072 11.957 20.51 12.887 80.762 8.91 162.217-5.604 241.354-20.688 77.706-14.809 158.599-38.835 228.578-76.6 4.104-2.215 23.571-10.8 13.354-17.784l-.756-.519c-1.795-1.032-3.729-1.457-5.733-1.457-7.142.002-15.164 5.399-20.771 8.003-69.67 32.35-143.449 56.789-218.549 71.104z"/></svg>