<svg xmlns="http://www.w3.org/2000/svg" width="88" height="20"><path fill="#455a64" d="M10.96 0c-5.462 0-9.908 4.446-9.9 9.9a9.9 9.9 0 0 0 1.323 4.954L.966 20l5.254-1.378a9.9 9.9 0 0 0 4.736 1.206h.004a9.93 9.93 0 0 0 9.911-9.91c0-2.648-1.03-5.138-2.9-7.01S13.61.001 10.96 0m0 18.154h-.003a8.21 8.21 0 0 1-4.192-1.148l-.3-.178-3.118.817.832-3.04-.196-.312c-.825-1.313-1.26-2.828-1.26-4.384a8.25 8.25 0 0 1 8.241-8.237 8.18 8.18 0 0 1 5.823 2.416c1.555 1.557 2.41 3.626 2.4 5.828a8.25 8.25 0 0 1-8.237 8.237m4.52-6.17c-.248-.124-1.465-.723-1.692-.806s-.392-.124-.557.124-.64.806-.784.97-.29.187-.537.062-1.045-.385-1.99-1.23C9.182 10.45 8.684 9.64 8.54 9.392s-.016-.382.108-.505c.112-.11.248-.29.372-.434s.165-.248.248-.413.04-.3-.02-.434-.557-1.343-.764-1.838c-.2-.484-.405-.418-.557-.426a10.16 10.16 0 0 0-.475-.009.91.91 0 0 0-.66.311c-.227.247-.866.846-.866 2.065s.887 2.396 1.01 2.562 1.746 2.667 4.23 3.74a13.94 13.94 0 0 0 1.412.521c.593.188 1.133.162 1.56.1.476-.07 1.465-.6 1.67-1.178s.207-1.074.145-1.178-.228-.165-.475-.29m17.532-.15h-.026l-1.643-6.63h-1.98l-1.67 6.547h-.027l-1.522-6.547H24.03l2.545 9.62h2.142l1.602-6.548h.027l1.63 6.548h2.1l2.586-9.62h-2.074l-1.577 6.63zm10.1-3.376c-.188-.247-.447-.44-.774-.58s-.748-.208-1.26-.208c-.36 0-.727.09-1.104.276s-.687.478-.93.882h-.04V5.206h-1.913v9.62h1.913v-3.652c0-.71.117-1.218.35-1.53s.6-.465 1.13-.465c.458 0 .776.142.956.425s.27.712.27 1.286v3.935h1.913V10.54a5.64 5.64 0 0 0-.115-1.179c-.077-.355-.2-.656-.4-.904m7.88 4.817V9.652c0-.423-.094-.762-.283-1.018s-.43-.456-.726-.6-.625-.24-.984-.3a7.85 7.85 0 0 0-1.063-.074c-.387 0-.77.038-1.15.114a3.34 3.34 0 0 0-1.032.385 2.28 2.28 0 0 0-.754.714c-.198.296-.3.67-.337 1.118h1.913c.035-.377.162-.647.377-.808s.512-.242.89-.242c.17 0 .33.01.48.033s.278.067.39.135.202.16.27.283.102.285.102.49c.01.198-.05.348-.175.452a1.28 1.28 0 0 1-.513.235 4.94 4.94 0 0 1-.74.122c-.28.027-.562.063-.848.108a7.83 7.83 0 0 0-.855.182c-.283.076-.535.19-.755.343a1.75 1.75 0 0 0-.539.614c-.14.256-.208.582-.208.977 0 .358.06.67.18.93s.3.475.506.646a2.15 2.15 0 0 0 .754.379c.287.08.597.12.93.12.43 0 .853-.063 1.266-.188a2.51 2.51 0 0 0 1.078-.661c.01.116.024.23.047.343s.052.224.088.33h1.94c-.1-.144-.152-.36-.188-.647s-.058-.588-.058-.904M49.08 12.13c0 .108-.01.252-.033.43s-.083.357-.182.533-.253.326-.458.45-.498.188-.876.188c-.152 0-.3-.013-.444-.04s-.27-.074-.378-.142a.73.73 0 0 1-.255-.276c-.063-.117-.095-.26-.095-.43 0-.18.03-.328.095-.444s.146-.214.25-.3.225-.137.363-.183a3.46 3.46 0 0 1 .424-.107 9.19 9.19 0 0 1 .458-.067 5.94 5.94 0 0 0 .438-.067 3.01 3.01 0 0 0 .391-.102c.12-.04.222-.096.303-.168v.714zm5.482-6.36H52.65V7.86H51.5v1.28h1.158v4.1c0 .35.06.633.175.85s.275.383.478.5.437.194.7.235a5.77 5.77 0 0 0 .841.06 14.32 14.32 0 0 0 .58-.012c.197-.01.376-.027.54-.055v-1.483c-.1.02-.185.033-.284.04s-.2.014-.31.014c-.323 0-.54-.055-.647-.162s-.16-.322-.16-.646V9.14h1.4V7.86h-1.4V5.77zm7.906 6.002c-.126-.22-.292-.404-.5-.553a2.72 2.72 0 0 0-.706-.357 8.45 8.45 0 0 0-.815-.228l-.795-.175a6.42 6.42 0 0 1-.693-.182c-.202-.067-.366-.155-.49-.263a.52.52 0 0 1-.188-.417c0-.144.035-.258.107-.343a.72.72 0 0 1 .263-.196 1.18 1.18 0 0 1 .344-.087 3.41 3.41 0 0 1 .35-.02c.342 0 .638.065.9.195s.39.38.416.747h1.82c-.037-.43-.146-.788-.33-1.07s-.415-.51-.693-.68-.596-.292-.95-.364-.72-.107-1.097-.107-.746.034-1.104.1a3.06 3.06 0 0 0-.97.351c-.288.167-.52.393-.694.68s-.263.656-.263 1.104c0 .306.063.564.19.775s.29.386.497.524.442.252.708.337a9.35 9.35 0 0 0 .813.223c.684.144 1.216.287 1.597.432s.572.358.572.646a.71.71 0 0 1-.12.424c-.082.112-.183.202-.303.27s-.258.117-.404.148a2.01 2.01 0 0 1-.425.047 2.17 2.17 0 0 1-.545-.067c-.176-.045-.33-.114-.466-.21a1.13 1.13 0 0 1-.33-.363c-.085-.148-.128-.325-.128-.533h-1.817c.018.468.122.856.316 1.167s.44.558.74.747.645.323 1.03.405.78.12 1.184.12c.396 0 .784-.038 1.166-.114s.72-.21 1.017-.397a2.21 2.21 0 0 0 .722-.748c.183-.31.274-.694.274-1.152-.002-.326-.064-.596-.19-.817m3.798-6.567l-3.636 9.62h2.128l.754-2.143h3.596l.727 2.143h2.196l-3.596-9.62h-2.17zm-.202 5.9l1.253-3.53h.026l1.213 3.53h-2.492zm12.58-2.304c-.26-.34-.588-.615-.983-.822s-.866-.3-1.414-.3a2.73 2.73 0 0 0-1.185.255 2.1 2.1 0 0 0-.889.822h-.028v-.9h-1.818v9.404h1.914v-3.3h.025c.233.342.533.6.896.774s.76.265 1.192.265c.512 0 .96-.1 1.34-.296s.7-.464.956-.796a3.44 3.44 0 0 0 .572-1.145c.125-.432.188-.88.188-1.347 0-.494-.063-.968-.188-1.422s-.32-.85-.58-1.19m-1.226 3.382a2.06 2.06 0 0 1-.276.707 1.51 1.51 0 0 1-.513.491c-.2.126-.473.19-.787.19-.306 0-.564-.063-.78-.19s-.4-.29-.52-.49a2.11 2.11 0 0 1-.282-.707c-.06-.27-.087-.544-.087-.82 0-.29.025-.567.08-.836s.146-.507.277-.715a1.54 1.54 0 0 1 .512-.504c.21-.13.473-.196.788-.196.304 0 .563.066.773.196a1.62 1.62 0 0 1 .52.512 2.22 2.22 0 0 1 .289.721 3.84 3.84 0 0 1 .087.823c0 .276-.026.55-.08.82m9.428-2.2c-.126-.453-.318-.85-.58-1.192s-.588-.615-.983-.822-.867-.3-1.415-.3a2.73 2.73 0 0 0-1.184.255c-.36.17-.656.445-.9.822h-.026v-.9H79.95v9.404h1.912v-3.3h.026c.234.342.532.6.896.774s.76.265 1.193.265c.51 0 .958-.1 1.34-.296s.7-.464.956-.796a3.42 3.42 0 0 0 .572-1.145 4.78 4.78 0 0 0 .188-1.347c0-.494-.062-.967-.188-1.42m-1.805 2.2a2.04 2.04 0 0 1-.276.707c-.13.202-.3.367-.513.49s-.473.19-.786.19c-.307 0-.566-.063-.78-.19s-.4-.29-.52-.49a2.13 2.13 0 0 1-.283-.707 3.9 3.9 0 0 1-.087-.821c0-.29.027-.567.08-.836s.146-.507.276-.715a1.56 1.56 0 0 1 .512-.504c.2-.13.473-.196.787-.196.306 0 .563.066.774.196a1.61 1.61 0 0 1 .52.512 2.2 2.2 0 0 1 .289.721 3.84 3.84 0 0 1 .087.823c0 .276-.026.55-.08.82"/></svg>